<svg xmlns:xlink="http://www.w3.org/1999/xlink" xmlns="http://www.w3.org/2000/svg" fill="#008060" viewBox="0 0 45 45" width="45"  height="45" ><path d="M42.75 18.67l-6-9A1.5 1.5 0 0035.5 9H26v-.5A2.5 2.5 0 0023.5 6h-19A2.5 2.5 0 002 8.5v22A2.5 2.5 0 004.5 33h2.71a5.49 5.49 0 0010.57 0h10.43a5.49 5.49 0 0010.57 0h2.72a1.5 1.5 0 001.5-1.5v-12a1.5 1.5 0 00-.25-.83zM34.7 12l4 6H26v-6zM12.5 34a2.5 2.5 0 112.5-2.5 2.5 2.5 0 01-2.5 2.5zm0-8a5.51 5.51 0 00-5.29 4H5V9h18v21h-5.21a5.51 5.51 0 00-5.29-4zm21 8a2.5 2.5 0 112.5-2.5 2.5 2.5 0 01-2.5 2.5zm5.29-4a5.49 5.49 0 00-10.57 0H26v-9h14v9z"></path></svg>