<svg xmlns:xlink="http://www.w3.org/1999/xlink" xmlns="http://www.w3.org/2000/svg" fill="#008060" viewBox="0 0 45 45" width="45"  height="45" ><path d="M41 6a3 3 0 00-3-3H7a3 3 0 00-3 3v31a3 3 0 003 3h6a1 1 0 001-1v-1a1 1 0 00-1-1H7V12h31v2a1 1 0 001 1h1a1 1 0 001-1V6zM11 9H7V6h4zm3 0V6h24v3zm27 12v3a1 1 0 01-1 1h-1a1 1 0 01-1-1v-2h-3v-3h4a2 2 0 012 2zm-.87 10.67L27.5 25.81a1.5 1.5 0 00-2.1 1.68l3.13 14.33A1.5 1.5 0 0029.79 43H30a1.5 1.5 0 001.33-.8l3.07-5.8 5.61-2a1.5 1.5 0 00.14-2.78zm-7.29 2.1a1.5 1.5 0 00-.83.71l-1.43 2.69L29 29.81l6.53 3zM21 33h-3v-5h3zm3 7v1a1 1 0 01-1 1h-3a2 2 0 01-2-2v-4h3v3h2a1 1 0 011 1zm8-18h-5v-3h5zm-12-3h4v3h-3v3h-3v-4a2 2 0 012-2z"></path></svg>