<svg xmlns:xlink="http://www.w3.org/1999/xlink" xmlns="http://www.w3.org/2000/svg" width="16" height="16" fill="none">
  <path d="M12.667 4.667c0-.733-.6-1.333-1.333-1.333h-1.333c-.367 0-.667.3-.667.666 0 .367.3.667.667.667h1.333v1.767l-2.32 2.9H6.667V6.667c0-.367-.3-.667-.666-.667H4a2.666 2.666 0 0 0-2.667 2.667V10c0 .367.3.667.667.667h.666c0 1.107.894 2 2 2 1.107 0 2-.893 2-2h2.347c.407 0 .787-.187 1.04-.5l2.32-2.9c.193-.24.293-.534.293-.833V4.667h.001Zm-8 6.667a.67.67 0 0 1-.666-.667h1.333c0 .367-.3.667-.667.667Z" fill="#9C9C9C"/>
  <path d="M4 4h2c.367 0 .667.3.667.667 0 .366-.3.666-.666.666H4a.669.669 0 0 1-.667-.666C3.333 4.3 3.633 4 4 4Zm8.668 4.666c-1.107 0-2 .894-2 2 0 1.107.893 2 2 2s2-.893 2-2c0-1.106-.893-2-2-2Zm0 2.667a.67.67 0 0 1-.667-.667c0-.366.3-.666.667-.666.367 0 .667.3.667.666 0 .367-.3.667-.667.667Z" fill="#9C9C9C"/>
</svg>