<svg width="32" height="32" viewBox="0 0 32 32" fill="none" xmlns="http://www.w3.org/2000/svg">
<g clip-path="url(#clip0_3_153)">
<path d="M32 16.0977C32 7.26166 24.836 0.0976562 16 0.0976562C7.164 0.0976562 0 7.26166 0 16.0977C0 24.0843 5.85067 30.703 13.5 31.903V20.723H9.43733V16.0963H13.5V12.5737C13.5 8.56432 15.8893 6.34832 19.544 6.34832C21.2933 6.34832 23.1253 6.66166 23.1253 6.66166V10.599H21.1067C19.1187 10.599 18.4987 11.8323 18.4987 13.0977V16.0977H22.936L22.2267 20.7243H18.4987V31.9043C26.1493 30.703 32 24.083 32 16.0977Z" fill="#ffbb00"/>
</g>
<defs>
<clipPath id="clip0_3_153">
<rect width="32" height="32" fill="white"/>
</clipPath>
</defs>
</svg>
