<svg width="20" height="20" viewBox="0 0 20 20" fill="none" xmlns="http://www.w3.org/2000/svg">
<path d="M10 1.66699C6.50001 1.66699 3.33301 4.34999 3.33301 8.49999C3.33301 11.15 5.37501 14.267 9.45001 17.858C9.604 17.9909 9.80061 18.064 10.004 18.064C10.2074 18.064 10.404 17.9909 10.558 17.858C14.625 14.267 16.667 11.15 16.667 8.49999C16.667 4.34999 13.5 1.66699 10 1.66699ZM10 9.99999C9.08301 9.99999 8.33301 9.24999 8.33301 8.33299C8.33301 7.41599 9.08301 6.66599 10 6.66599C10.917 6.66599 11.667 7.41599 11.667 8.33299C11.667 9.24999 10.917 9.99999 10 9.99999Z" fill="#ffbb00"/>
</svg>
