<svg width="149" height="36" viewBox="0 0 149 36" fill="none" xmlns="http://www.w3.org/2000/svg">
<g clip-path="url(#clip0_12_15)">
<path d="M48.9525 35.52V0H39.9159L21.0211 27.408L17.8317 23.424C23.5339 22.56 26.7234 17.568 26.7234 12.24C26.7234 7.152 23.9205 2.88 20.1512 1.248C18.2666 0.432 15.4638 0 11.7428 0H0V35.52H8.7467V24.048H8.84335L17.1068 35.52H26.3368L29.4778 30.384H39.8192V35.52H48.9525ZM8.7467 17.856V7.968H12.2261C15.6571 7.968 17.9767 9.696 17.9767 12.768C17.9767 16.032 15.8021 17.856 12.1777 17.856H8.7467ZM39.8192 23.184H33.827L39.7226 13.344H39.8192V23.184ZM85.6045 35.52V0H76.8578L77.2444 22.464L63.327 0H55.4501V35.52H64.1969L63.9552 13.824L77.6793 35.52H85.6045ZM111.98 35.52V27.552H100.865V21.456H111.641V13.488H100.865V7.968H111.98V0H92.1182V35.52H111.98ZM148.285 35.52L135.673 17.712L147.512 0H137.944L127.844 15.984H127.747V0H118.614V35.52H127.747V20.16H127.844L137.606 35.52H148.285Z" fill="#9C9C9C"/>
</g>
<defs>
<clipPath id="clip0_12_15">
<rect width="149" height="36" fill="white"/>
</clipPath>
</defs>
</svg>
