<svg width="24" height="24" viewBox="0 0 24 24" fill="none" xmlns="http://www.w3.org/2000/svg">
<path d="M12 8C9.79 8 8 9.79 8 12C8 14.21 9.79 16 12 16C14.21 16 16 14.21 16 12C16 9.79 14.21 8 12 8ZM20.94 11C20.7135 8.97212 19.8042 7.08154 18.3613 5.63869C16.9185 4.19585 15.0279 3.28651 13 3.06V2C13 1.45 12.55 1 12 1C11.45 1 11 1.45 11 2V3.06C8.97212 3.28651 7.08154 4.19585 5.63869 5.63869C4.19585 7.08154 3.28651 8.97212 3.06 11H2C1.45 11 1 11.45 1 12C1 12.55 1.45 13 2 13H3.06C3.28651 15.0279 4.19585 16.9185 5.63869 18.3613C7.08154 19.8042 8.97212 20.7135 11 20.94V22C11 22.55 11.45 23 12 23C12.55 23 13 22.55 13 22V20.94C15.0279 20.7135 16.9185 19.8042 18.3613 18.3613C19.8042 16.9185 20.7135 15.0279 20.94 13H22C22.55 13 23 12.55 23 12C23 11.45 22.55 11 22 11H20.94ZM12 19C8.13 19 5 15.87 5 12C5 8.13 8.13 5 12 5C15.87 5 19 8.13 19 12C19 15.87 15.87 19 12 19Z" fill="#ffbb00"/>
</svg>
