<svg width="24" height="24" viewBox="0 0 24 24" fill="none" xmlns="http://www.w3.org/2000/svg">
<path d="M6.05001 8.05C4.74079 9.35944 4.00364 11.1342 3.99989 12.9859C3.99614 14.8375 4.72611 16.6153 6.03001 17.93C7.50001 14.53 10.12 11.69 13.39 10C10.5676 12.3882 8.66233 15.6826 8.00001 19.32C10.6 20.55 13.8 20.1 15.95 17.95C18.94 14.96 19.78 6.81 19.96 4.57C19.9663 4.49883 19.9569 4.42714 19.9325 4.35999C19.908 4.29285 19.8692 4.23186 19.8187 4.18134C19.7681 4.13082 19.7072 4.09198 19.64 4.06756C19.5729 4.04314 19.5012 4.03373 19.43 4.04C17.19 4.22 9.04001 5.06 6.05001 8.05Z" fill="#ffbb00"/>
</svg>
