<svg width="24" height="24" viewBox="0 0 24 24" fill="none" xmlns="http://www.w3.org/2000/svg">
<path d="M19.4599 10C19.3613 10.1458 19.3029 10.315 19.2906 10.4906C19.2783 10.6662 19.3126 10.8419 19.3899 11C19.6379 11.579 19.8129 12.187 19.9099 12.81C20.1674 14.4201 19.9266 16.0705 19.2199 17.54C19.1341 17.7012 19.0058 17.8358 18.8489 17.9292C18.692 18.0227 18.5125 18.0713 18.3299 18.07H5.67994C5.49631 18.0704 5.31613 18.0202 5.15913 17.9249C5.00214 17.8297 4.87441 17.6931 4.78994 17.53C4.14982 16.2314 3.87408 14.7835 3.99213 13.3406C4.11017 11.8976 4.61756 10.5138 5.46022 9.3365C6.30288 8.15924 7.44922 7.23271 8.77702 6.6557C10.1048 6.07868 11.5643 5.8728 12.9999 6.06C13.7263 6.14538 14.4368 6.33395 15.1099 6.62C15.268 6.69738 15.4438 6.73165 15.6193 6.71936C15.7949 6.70707 15.9642 6.64865 16.1099 6.55C16.2618 6.44995 16.3835 6.31036 16.462 6.14628C16.5404 5.98219 16.5727 5.79982 16.5552 5.61879C16.5377 5.43776 16.4712 5.26492 16.3628 5.11888C16.2543 4.97285 16.1082 4.85914 15.9399 4.79C14.0081 3.96166 11.8644 3.76309 9.81335 4.2225C7.76226 4.68191 5.90808 5.77594 4.5142 7.34919C3.12031 8.92243 2.25759 10.8949 2.04859 12.9864C1.83959 15.0779 2.29493 17.182 3.34994 19C3.52445 19.3023 3.77503 19.5536 4.07677 19.7291C4.37852 19.9045 4.72092 19.9979 5.06994 20H18.9199C19.2724 20.0014 19.6189 19.9097 19.9244 19.734C20.23 19.5584 20.4837 19.3052 20.6599 19C21.4323 17.6614 21.884 16.1621 21.9794 14.6196C22.0748 13.0772 21.8114 11.5336 21.2099 10.11C21.1338 9.94776 21.0154 9.80898 20.8672 9.70818C20.719 9.60738 20.5464 9.54826 20.3675 9.53701C20.1886 9.52577 20.01 9.56281 19.8503 9.64426C19.6907 9.72571 19.5558 9.84858 19.4599 10Z" fill="#ffbb00"/>
<path d="M10.59 12.59C10.2147 12.9653 10.0039 13.4743 10.0039 14.005C10.0039 14.2678 10.0557 14.528 10.1562 14.7708C10.2568 15.0136 10.4042 15.2342 10.59 15.42C10.7758 15.6058 10.9964 15.7532 11.2392 15.8538C11.482 15.9543 11.7422 16.0061 12.005 16.0061C12.5357 16.0061 13.0447 15.7953 13.42 15.42L19.08 6.92999L10.59 12.59Z" fill="#ffbb00"/>
</svg>
