<svg xmlns:xlink="http://www.w3.org/1999/xlink" xmlns="http://www.w3.org/2000/svg" width="24" height="24" viewBox="0 0 24 24" fill="none">
  <title>Car front (filled)</title>
  <g transform="matrix(           1 0           0 1           1 3         )"><path fill-rule="nonzero" clip-rule="nonzero" d="M19.8999 6L18.3999 1.40002C18.0999 0.600024 17.4 0 16.5 0L5.3999 0C4.4999 0 3.8 0.500024 3.5 1.40002L2 6L0 6L0 9L1 9L1 18L5 18L5 16L17 16L17 18L21 18L21 9L22 9L22 6L19.8999 6ZM4 11L8 11L8 13L4 13L4 11ZM14 13L14 11L18 11L18 13L14 13ZM6.1001 3L15.7998 3L17.1001 7L4.7998 7L6.1001 3Z" fill="currentColor" opacity="1"/></g>
</svg>