<svg xmlns="http://www.w3.org/2000/svg" xmlns:xlink="http://www.w3.org/1999/xlink" width="956" height="300" viewBox="0 0 956 300" version="1.1">
    <!-- Generator: Sketch 51.1 (57501) - http://www.bohemiancoding.com/sketch -->
    <title>Illo/Driveroverview</title>
    <desc>Created with Sketch.</desc>
    <defs/>
    <g id="Illo/Driveroverview" stroke="none" stroke-width="1" fill="none" fill-rule="evenodd">
        <g id="whyDriveWithUs_desktop" fill-rule="nonzero">
            <path d="M916.52,300.33 L39.52,300.33 C27.1727951,300.341999 15.5542957,294.487048 8.21783188,284.555789 C0.881368115,274.62453 -1.30032059,261.798376 2.34,250 L18,199.39 C39.92,128.39 107,79.71 183.07,79.71 L773,79.71 C849.08,79.71 916.16,128.34 938.08,199.39 L953.66,250 C957.298236,261.791642 955.121207,274.610327 947.794038,284.539686 C940.466869,294.469046 928.860161,300.329292 916.52,300.33 Z" id="Shape" fill="#276EF1"/>
            <path d="M294.52,121.17 L294.52,179.32 L244.31,179.32 L244.31,122.08 C252.72,129.82 294.52,121.17 294.52,121.17 Z" id="Shape" fill="#C78982"/>
            <path d="M244.31,130.21 L244.31,110.15 L294.52,110.15 L294.52,153.15 C286.36,153.15 280.69,153.15 273.99,150.82 C263.16,147.11 252.15,139.37 244.31,130.21 Z" id="Shape" fill="#99644D"/>
            <path d="M220,64.44 C220,63.11 220.06,61.8 220.16,60.51 C220.314723,58.6836928 220.571793,56.8675052 220.93,55.07 C220.93,54.87 220.93,54.66 220.93,54.46 C220.93,28.3 239.47,6.73 263.43,3.61 C265.41925,3.34710117 267.423456,3.21348744 269.43,3.21 C296.21,3.21 317.93,26.21 317.93,54.46 C317.93,54.65 317.93,54.84 317.93,55.03 C318.480793,57.8315651 318.788603,60.675465 318.85,63.53 C318.85,63.84 318.85,64.14 318.85,64.45 C318.85,64.45 319.01,66.45 318.92,69.98 C318.86,72.27 318.73,74.54 318.49,76.81 C318.43,77.42 318.37,78.02 318.27,78.62 C317.976667,81.06 317.583333,83.4766667 317.09,85.87 C316.230379,90.063237 315.063907,94.1876673 313.6,98.21 C311.013316,105.372528 307.532443,112.179716 303.24,118.47 L303.04,118.78 C302.31,119.83 301.57,120.88 300.78,121.9 C297.987885,125.637428 294.908549,129.151416 291.57,132.41 L291.3,132.66 C277.78,147.66 261.97,148.31 247.56,132.66 C247.478072,132.571874 247.39127,132.48841 247.3,132.41 C242.377071,127.584053 238.015998,122.216578 234.3,116.41 C231.970331,112.798942 229.901728,109.025997 228.11,105.12 C225.897673,100.324636 224.117291,95.3415757 222.79,90.23 C221.421511,85.0371345 220.544317,79.7270982 220.17,74.37 C220.05,72.91 219.98,71.43 219.94,69.96 C219.94,69.43 219.94,68.96 219.94,68.45 C219.88,65.9 220,64.44 220,64.44 Z" id="Shape" fill="#C78982"/>
            <path d="M266,93.8 C266.00282,93.7567125 266.00282,93.7132875 266,93.67 C266,93.67 266,93.73 266,93.8 Z" id="Shape" fill="#C78982"/>
            <path d="M266,93.8 C266.00282,93.7567125 266.00282,93.7132875 266,93.67 C266,93.67 266,93.73 266,93.8 Z" id="Shape" fill="#C78982"/>
            <path d="M215.38,149.1 C220.92,151.32 228.6,153.1 244.31,153.1 L244.31,129.34 C243.76,128.74 243.2,128.13 242.67,127.53 C242.14,126.93 241.6,126.3 241.08,125.69 C240.56,125.08 240.13,124.55 239.67,123.96 C239.57,123.85 239.49,123.74 239.4,123.63 C239.032828,123.220234 238.698463,122.782216 238.4,122.32 C233.22,112.9 231.55,109.87 229.3,95.79 C227.19,82.57 228.61,70.38 240.58,65.44 C257.17,58.59 269.1,42.91 274.38,25.76 C274.38,43.34 286.77,58.44 298.77,65.83 C310.54,73.08 308.43,86.99 307.5,95.83 C306.02,109.83 299.04,122.31 294.5,129.38 L294.5,189.93 L295.5,190.15 C330.5,197.89 360.29,164.15 348.31,130.4 L316.71,38.48 C312.41,21.5 299.92,8 284.12,2.75 C281.293331,1.79706973 278.37904,1.12711769 275.42,0.75 C273.430923,0.484202437 271.426745,0.347250279 269.42,0.34 C249.67,0.34 232.19,13.34 224.84,31.34 C224.18,32.97 223.51,34.55 222.84,36.13 L200.95,102 C195.56,116.18 193.37,140.29 215.38,149.1 Z" id="Shape" fill="#000000"/>
            <path d="M345.6,189.16 C345.6,189.16 342.35,174.68 345.35,167.92 L346.95,164.32 L309.54,180.51 L345.6,189.16 Z" id="Shape" fill="#000000"/>
            <path d="M356.69,300.33 C356.685873,300.303493 356.685873,300.276507 356.69,300.25 L182.12,300.25 C182.12,300.25 182.12,300.3 182.12,300.33 L131.81,300.33 L131.81,300.19 L152.22,232.35 L156.43,218.35 C160.43,201.52 176.97,189.01 194.31,186.04 L234.8,176.33 C240.346428,174.995026 244.256721,170.034823 244.26,164.33 L244.26,153.11 L294.46,153.11 L294.46,164.37 C294.463279,170.074823 298.373572,175.035026 303.92,176.37 L344.42,186.08 C361.75,189.08 378.3,201.56 382.3,218.39 L407,300.33 L356.69,300.33 Z" id="Shape" fill="#FFFFFF"/>
            <polygon id="Shape" fill="#276EF1" points="355.73 300.26 316.64 300.26 191.77 174.86 230.83 174.86"/>
            <path d="M288.52,64.18 C283.666024,64.1875011 279.071186,66.3711499 276,70.13 L275.09,71.24 C273.829804,72.7806691 273.140906,74.7095846 273.14,76.7 C273.14,77.7438182 272.293818,78.59 271.25,78.59 L265.85,78.59 C264.821836,78.5682351 263.99977,77.7283947 264,76.7 C263.985012,74.70344 263.278201,72.7738448 262,71.24 L261.1,70.14 C258.031941,66.3543194 253.422807,64.1507497 248.55,64.14 L228.72,64.14 C228.653726,64.14 228.6,64.1937258 228.6,64.26 L228.6,81.86 C228.6,91.6243944 236.515606,99.54 246.28,99.54 C254.355732,99.5373143 261.400791,94.056909 263.39,86.23 C263.691285,84.9519589 264.391809,83.8030983 265.39,82.95 C267.200773,81.463834 269.809227,81.463834 271.62,82.95 C272.618918,83.8066318 273.319371,84.9588767 273.62,86.24 C275.567116,93.8659196 282.323251,99.2846908 290.19,99.53 C300.25,99.83 308.4,91.37 308.4,81.31 L308.4,64.31 C308.4,64.2437258 308.346274,64.19 308.28,64.19 L288.52,64.18 Z" id="Shape" fill="#000000"/>
            <path d="M274.6,114.46 C272.962779,113.458629 270.864866,113.63683 269.42,114.9 C267.975134,113.63683 265.877221,113.458629 264.24,114.46 L256.36,119.31 L257.82,120.57 C261.04349,123.354495 265.160389,124.887685 269.42,124.89 C273.679611,124.887685 277.79651,123.354495 281.02,120.57 L282.48,119.31 L274.6,114.46 Z" id="Shape" fill="#99644D"/>
            <polygon id="Shape" fill="#FFAFA1" points="689.93 197.59 617.6 197.59 617.61 161.97 617.6 101.58 689.93 101.58"/>
            <path d="M471.46,300.13 L488.77,238.85 C495.45,214.94 513.68,196.68 536.51,191.06 L590.76,177.67 C606.53,173.78 617.7,174.94 617.66,157.67 L617.66,155.59 L627.26,155.59 C628.485057,155.589814 629.700476,155.806491 630.85,156.23 C632.220236,156.727427 633.477936,157.492245 634.55,158.48 L653,175.44 L673.18,158.23 C674.181961,157.366886 675.329973,156.689592 676.57,156.23 C677.720605,155.810493 678.935311,155.593944 680.16,155.59 L690,155.59 L690,157.67 C690,174.92 701.12,173.75 716.9,177.67 L771.15,191.06 C793.98,196.69 812.21,214.94 818.89,238.85 L836.1,300.13 L471.46,300.13 Z" id="Shape" fill="#000000"/>
            <path d="M698.32,68.72 L696.53,105.64 C702.69,104.28 708.53,97.09 710.26,91.02 L713.95,77.92 C714.848447,73.9716303 713.517355,69.8479293 710.48,67.17 C708.673461,65.7376492 706.365523,65.0945683 704.078584,65.3863178 C701.791644,65.6780673 699.719075,66.8799782 698.33,68.72 L698.32,68.72 Z" id="Shape" fill="#FFAFA1"/>
            <path d="M609.13,68.72 L610.92,105.64 C604.76,104.28 598.92,97.09 597.19,91.02 L593.5,77.92 C592.608756,73.9660431 593.951692,69.8413119 597,67.17 C598.806539,65.7376492 601.114477,65.0945683 603.401416,65.3863178 C605.688356,65.6780673 607.760925,66.8799782 609.15,68.72 L609.13,68.72 Z" id="Shape" fill="#FFAFA1"/>
            <path d="M707.1,65.92 L705.48,74.31 C705.19,75.83 704.74,77.68 704.18,79.76 C699.25,98.04 685.34,134.52 685.34,134.52 C680.00347,147.264926 667.53708,155.560136 653.72,155.560136 C639.90292,155.560136 627.43653,147.264926 622.1,134.52 C622.1,134.52 608.19,98 603.26,79.75 C602.7,77.67 602.26,75.83 601.96,74.3 L600.34,65.91 C593.94,32.84 618.42,1.33 652.09,0.35 L653.72,0.35 L655.35,0.35 C689,1.33 713.5,32.84 707.1,65.92 Z" id="Shape" fill="#FFAFA1"/>
            <path d="M708.1,53.71 C707.26,25.51 685.4,1.27 656.69,0.43 L655.11,0.43 L653.73,0.43 L652.36,0.43 L650.77,0.43 C622.06,1.28 600.21,25.52 599.36,53.71 C599.231769,59.2017429 599.905532,64.6828114 601.36,69.98 L605.13,84.07 L611.55,84.07 L609.79,80.07 C605.636382,70.5748449 605.409885,59.8216329 609.16,50.16 C610.529519,46.5316348 611.417093,42.7392743 611.8,38.88 L612.22,35.1 C613.447213,30.3131449 616.988511,26.4580264 621.654212,24.8297551 C626.319913,23.2014837 631.490899,24.0161236 635.43,27 C646.249287,35.1753258 661.180713,35.1753258 672,27 C674.540609,25.0554547 677.650633,24.0012095 680.85,24 C687.589167,23.9799772 693.486099,28.527158 695.18,35.05 L695.59,38.83 C695.980644,42.6889737 696.871446,46.4807658 698.24,50.11 C701.985741,59.7724039 701.759281,70.5238905 697.61,80.02 L695.85,84.02 L702.27,84.02 L706.06,70 C707.525424,64.6974705 708.212603,59.2101462 708.1,53.71 Z" id="Shape" fill="#7C4F40"/>
            <path d="M702.28,84.07 L690.62,127.72 C685.940729,144.219676 670.875361,155.60666 653.725,155.60666 C636.574639,155.60666 621.509271,144.219676 616.83,127.72 L605.16,84.07 L611.57,84.07 L620.22,103.86 C623.11,111.93 633.75,111.35 639.16,108.42 L644.16,105.7 C650.1022,102.481598 657.2678,102.481598 663.21,105.7 L668.21,108.42 C673.62,111.35 684.26,111.93 687.15,103.86 L695.8,84.07 L702.28,84.07 Z" id="Shape" fill="#7C4F40"/>
            <path d="M691.06,57 L686,56.35 L685.58,56.26 L682.13,55.7 C679.029821,55.19222 675.87694,55.0880203 672.75,55.39 C667.627313,55.9008231 663.144417,59.0525035 660.93,63.7 C660.275588,65.0594733 658.749096,65.764008 657.29,65.38 C654.960294,64.7364413 652.499706,64.7364413 650.17,65.38 C648.710904,65.764008 647.184412,65.0594733 646.53,63.7 C644.311116,59.0535304 639.824217,55.9054951 634.7,55.4 C631.57306,55.0980203 628.420179,55.20222 625.32,55.71 L621.87,56.27 L621.45,56.36 L616.37,57.04 C612.593961,57.489066 609.88774,60.9008693 610.31,64.68 C610.373817,65.1886329 610.515473,65.6844272 610.73,66.15 C611.794201,68.3489976 612.725866,70.6097043 613.52,72.92 C613.930341,74.1389655 614.445604,75.3200555 615.06,76.45 C616.277033,78.6965623 617.909224,80.6918399 619.87,82.33 C623.847103,85.834314 629.166615,87.4074847 634.41,86.63 C641.113408,85.6247339 646.467889,80.5261803 647.8,73.88 C647.928958,73.1592937 648.012456,72.4311896 648.05,71.7 C648.10424,70.2714518 649.093855,69.0497055 650.48,68.7 C652.598562,68.1800342 654.811438,68.1800342 656.93,68.7 C658.316145,69.0497055 659.30576,70.2714518 659.36,71.7 C659.397544,72.4311896 659.481042,73.1592937 659.61,73.88 C660.945846,80.522281 666.299515,85.6160635 673,86.62 C678.243385,87.3974847 683.562897,85.824314 687.54,82.32 C689.500776,80.6818399 691.132967,78.6865623 692.35,76.44 C692.964396,75.3100555 693.479659,74.1289655 693.89,72.91 C694.684134,70.5997043 695.615799,68.3389976 696.68,66.14 C696.894527,65.6744272 697.036183,65.1786329 697.1,64.67 C697.540533,60.8867903 694.841039,57.4587901 691.06,57 Z M645.32,73.37 C644.233899,78.9044231 639.786967,83.159229 634.21,84 C629.861125,84.6342017 625.452895,83.3292779 622.15,80.43 C620.519724,79.0712575 619.162339,77.4152481 618.15,75.55 C617.152806,73.675782 616.476776,71.6476907 616.15,69.55 C616.042566,68.909275 616.002348,68.2590809 616.03,67.61 C616.234687,63.2048426 619.489526,59.5415853 623.84,58.82 L626.7,58.36 C629.274567,57.9375387 631.892993,57.8501458 634.49,58.1 C637.916167,58.440488 641.035823,60.2221097 643.07,63 C643.840426,64.0800746 644.375315,65.3099772 644.64,66.61 C644.86,67.61 645.11,69.04 645.3,70.13 C645.494556,71.2006636 645.501324,72.2970162 645.32,73.37 Z M691.45,67.58 C691.477652,68.2290809 691.437434,68.879275 691.33,69.52 C691.003224,71.6176907 690.327194,73.645782 689.33,75.52 C688.317661,77.3852481 686.960276,79.0412575 685.33,80.4 C682.020182,83.3243242 677.589808,84.6413636 673.22,84 C667.65769,83.1658417 663.214833,78.9349301 662.11,73.42 C661.91854,72.3384076 661.91854,71.2315924 662.11,70.15 C662.29,69.06 662.55,67.61 662.77,66.63 C663.038058,65.3214048 663.579921,64.0843216 664.36,63 C666.399891,60.1922616 669.545554,58.3936999 673,58.06 C675.597007,57.8101458 678.215433,57.8975387 680.79,58.32 L683.65,58.78 C688.000474,59.5015853 691.255313,63.1648426 691.46,67.57 L691.45,67.58 Z" id="Shape" fill="#FFFFFF"/>
            <polygon id="Shape" fill="#276EF1" points="763.46 178.07 648.48 293.75 647.84 294.38 648.03 294.42 608.96 294.42 608.78 294.38 609.33 293.83 609.41 293.75 724.41 178.07"/>
            <path d="M784.61,298.29 C783.99,296.57 783.36,294.86 782.68,293.17 C761.132572,239.601431 708.712006,204.931796 650.983421,206.069217 C593.254836,207.206639 542.24061,243.914241 522.82,298.29 C522.59,298.96 522.35,299.63 522.13,300.29 L547.66,300.29 C547.95,299.62 548.24,298.95 548.54,298.29 C566.330592,258.004483 605.565316,231.416697 649.575387,229.822407 C693.585457,228.228117 734.641133,251.907336 755.3,290.8 C756.61,293.24 757.83,295.74 758.94,298.29 C759.24,298.96 759.53,299.63 759.81,300.29 L785.31,300.29 L784.61,298.29 Z" id="Shape" fill="#FFFFFF"/>
            <path d="M570.17,287.48 C563.99,289.67 557.42,290.87 551.35,293.57 C551.17,293.65 547.35,298.22 544.89,299.24 C543.982578,299.584082 543.058017,299.881143 542.12,300.13 L505.38,300.13 L505.44,298.96 C505.485765,298.474409 505.485765,297.985591 505.44,297.5 L504.94,292.8 C504.862675,292.169027 504.862675,291.530973 504.94,290.9 C505.189239,288.564429 506.45978,286.459066 508.41,285.15 L508.47,285.15 L510.31,283.88 C512.71566,282.203963 514.659082,279.94753 515.96,277.32 L517.75,273.66 C518.609834,271.524482 520.347958,269.862879 522.52,269.1 L522.67,269.1 L523.24,268.94 L525.68,268.24 C528.082417,267.549748 530.257193,266.231074 531.98,264.42 L533.46,262.86 C535.174197,261.008968 537.661104,260.074988 540.17,260.34 C540.826901,260.411389 541.472068,260.56596 542.09,260.8 C542.705587,261.029791 543.290101,261.335485 543.83,261.71 L552.16,266.04 C554.515971,267.287852 556.56533,269.04347 558.16,271.18 L570.17,287.48 Z" id="Shape" fill="#FFAFA1"/>
            <path d="M809.15,299.7 L809.04,300.14 L755.38,300.14 L754.73,299.92 C752.23,299.05 746.94,294.03 744.41,293.24 L755.94,278 C757.53467,275.86347 759.584029,274.107852 761.94,272.86 L770.27,268.53 C770.813562,268.15564 771.401362,267.849984 772.02,267.62 C775.047044,266.47391 778.466968,267.290253 780.65,269.68 L782.13,271.24 C783.852807,273.051074 786.027583,274.369748 788.43,275.06 L790.87,275.76 L791.44,275.92 L791.59,275.92 C793.758253,276.685311 795.492378,278.346574 796.35,280.48 L798.15,284.14 C799.445048,286.771416 801.389627,289.029193 803.8,290.7 L805.63,291.97 L805.69,291.97 C807.636426,293.281139 808.903112,295.386182 809.15,297.72 C809.234001,298.377327 809.234001,299.042673 809.15,299.7 Z" id="Shape" fill="#FFAFA1"/>
            <path d="M833.7,300.33 L472.16,300.26 L494.59,299.59 C498.45,299.47 502.303333,299.253333 506.15,298.94 C513.865119,298.315002 521.542271,297.286931 529.15,295.86 C532.283333,295.28 535.41,294.613333 538.53,293.86 C547.932054,291.687187 557.187209,288.921662 566.24,285.58 L566.39,285.52 C569.456667,284.386667 572.503333,283.186667 575.53,281.92 C577.343333,281.166667 579.15,280.386667 580.95,279.58 L581.37,279.4 C586.783333,276.986667 592.256667,274.846667 597.79,272.98 L598.63,272.7 L599.91,272.27 C600.78,271.98 601.66,271.7 602.53,271.44 C605.196667,270.6 607.9,269.826667 610.64,269.12 C639.989229,261.415197 670.786226,261.07171 700.3,268.12 C706.624111,269.629246 712.865806,271.465038 719,273.62 C721.606667,274.526667 724.203333,275.5 726.79,276.54 C727.71,276.9 728.63,277.27 729.54,277.66 L739.22,281.66 C743.413333,283.4 747.64,285.02 751.9,286.52 C754.986667,287.6 758.086667,288.6 761.2,289.52 C766.733333,291.26 772.333333,292.753333 778,294 C780.54,294.566667 783.086667,295.086667 785.64,295.56 C791.48,296.653333 797.346667,297.51 803.24,298.13 C806.16,298.44 809.09,298.69 812.02,298.89 L812.85,298.89 L833.7,300.33 Z" id="Shape" fill="#FFFFFF"/>
            <path d="M660.17,114.42 C659.098796,114.075493 657.973626,113.929763 656.85,113.99 C654.76,114.09 652.68,114.09 650.59,113.99 C649.466374,113.929763 648.341204,114.075493 647.27,114.42 L637.46,117.75 L639.28,118.62 C643.818659,120.655844 648.746014,121.679533 653.72,121.62 C658.693986,121.679533 663.621341,120.655844 668.16,118.62 L669.98,117.75 L660.17,114.42 Z" id="Shape" fill="#FFAFA1"/>
        </g>
    </g>
</svg>