<svg xmlns:xlink="http://www.w3.org/1999/xlink" xmlns="http://www.w3.org/2000/svg" viewBox="0 0 88 88" height="88" width="88">
    <path d="M0 48.93v39.61h58.34v-36.1l-10.23-14.7h-11l-8.01 8.05-7.91-8.05H14.7C6.58 37.74 0 40.81 0 48.93z" style="fill: rgb(39, 110, 241);"/>
    <path d="M46.45 20.22a4.39 4.39 0 0 1-1.28-3.09v-2.22a12 12 0 0 0-23.95 0v22.86l7.91 8.05 8.05-8.05v-6.89h5.58a2.39 2.39 0 0 0 2.39-2.39V20.9h1a.4.4 0 0 0 .3-.68z" fill="#777"/>
    <path d="M41.94 2.88H29.17a8 8 0 0 0-8 8v16h3.19a4.79 4.79 0 0 0 4.79-4.79v-5.22a2 2 0 0 1 2-2 2 2 0 0 1 2 2v2h.4a1.6 1.6 0 0 0 1.6-1.6v-1a3.19 3.19 0 0 1 3.19-3.19h.8v-2.3a1.6 1.6 0 0 1 1.59-1.6h2.8a1.6 1.6 0 0 0 1.6-1.6v-1.5a3.19 3.19 0 0 0-3.19-3.2z"/>
    <path d="M80.75 61.23L69.07 56H54.9l-11.68 5.23A12.3 12.3 0 0 0 36 72.44v16.1h52v-16.1a12.3 12.3 0 0 0-7.25-11.21z" style="fill: rgb(156, 192, 255);"/>
    <path d="M79.26 37.17a4.39 4.39 0 0 1-1.28-3.09v-2.22a12 12 0 1 0-23.95 0v25.42a13.68 13.68 0 0 0 4 9.67l4 4 4-4a13.68 13.68 0 0 0 4-9.67v-9.45h5.58A2.39 2.39 0 0 0 78 45.44v-7.59h1a.4.4 0 0 0 .26-.68z" fill="#a5a5a5"/>
    <path d="M75.09 19.86h-9.91A11.18 11.18 0 0 0 54 31v16.85l6-6A6.88 6.88 0 0 0 62 37v-3.15a2 2 0 0 1 2-2 2 2 0 0 1 2 2v2l11.11-11.11a2.86 2.86 0 0 0 .84-2 2.86 2.86 0 0 0-2.86-2.88zM50.44 79.55l-10.13-3.7h-11.7l-10.23 3.7c-3.86 1.74-6.35 4.75-6.35 9h44.76c0-4.25-2.49-7.26-6.35-9z"/>
    <path d="M49.11 63.2l-.45-.45a1.81 1.81 0 0 1-.53-1.28v-1.54A9.92 9.92 0 0 0 40.19 50a9.76 9.76 0 0 0-11.51 8.39h-.08v17.42c2.4 4.21 6.87 5.93 11.71 5.93V72.4h4.81a3 3 0 0 0 3-3v-5h.47a.73.73 0 0 0 .52-1.2z" fill="#d6d6d5"/>
    <path d="M28.6 65.78v4.72l4.93-3.76a5.59 5.59 0 0 0 2.2-4.45v-1a1.32 1.32 0 1 1 2.63 0v3.92A1.6 1.6 0 0 0 40 63.57v-4.75h8.14V58A8.14 8.14 0 0 0 40 49.87h-1.75a9.65 9.65 0 0 0-9.65 9.65v2.42h-4.06a3.62 3.62 0 0 0-3.62 3.62 4 4 0 0 0 3.63 4.05 3.84 3.84 0 0 0 4-3.84M54 37.74h-4.58A3.23 3.23 0 0 0 46.19 41v3.63a4.57 4.57 0 0 0 7.81 3.2l7-10.09z"/>
    <path d="M29.1 45.79l-7.91-8.05v2.91a7.93 7.93 0 0 0 7.91 8.05 8.05 8.05 0 0 0 8.05-8.05v-2.91z" fill="#fff"/>
    <path d="M37.15 34.28l-3.41-3.4 3.41.05v3.35zm32.82 16.98l-3.41-3.41 3.41.06v3.35zM40.31 75.85l-3.41-3.41 3.41.06v3.35z"/>
</svg>