<svg xmlns="http://www.w3.org/2000/svg" xmlns:xlink="http://www.w3.org/1999/xlink" width="24" height="24" viewBox="0 0 24 24" version="1.1">
    <!-- Generator: Sketch 51.2 (57519) - http://www.bohemiancoding.com/sketch -->
    <title>icon/support</title>
    <desc>Created with Sketch.</desc>
    <defs>
        <polygon id="path-1" points="0 24 22.9565217 24 22.9565217 0 0 0"/>
    </defs>
    <g id="icon/support" stroke="none" stroke-width="1" fill="none" fill-rule="evenodd">
        <g id="Group-7">
            <path d="M8.34782609,7.30434783 C7.19686957,7.30434783 6.26086957,6.36834783 6.26086957,5.2173913 C6.26086957,4.06643478 7.19686957,3.13043478 8.34782609,3.13043478 C9.49878261,3.13043478 10.4347826,4.06643478 10.4347826,5.2173913 C10.4347826,6.36834783 9.49878261,7.30434783 8.34782609,7.30434783 M8.34782609,0 C5.46678261,0 3.13043478,2.33530435 3.13043478,5.2173913 C3.13043478,8.09947826 5.46678261,10.4347826 8.34782609,10.4347826 C11.2288696,10.4347826 13.5652174,8.09947826 13.5652174,5.2173913 C13.5652174,2.33530435 11.2288696,0 8.34782609,0" id="Fill-1" fill="#000000"/>
            <path d="M0,18.7826087 L0,24 L3.13043478,24 L3.13043478,18.7826087 C3.13043478,17.0566957 4.53495652,15.6521739 6.26086957,15.6521739 L10.4347826,15.6521739 L10.4347826,12.5217391 L6.26086957,12.5217391 C2.8173913,12.5217391 0,15.3391304 0,18.7826087" id="Fill-3" fill="#000000"/>
            <mask id="mask-2" fill="white">
                <use xlink:href="#path-1"/>
            </mask>
            <g id="Clip-6"/>
            <path d="M15.6521739,17.7391304 L19.826087,17.7391304 L19.826087,15.6521739 L15.6521739,15.6521739 L15.6521739,17.7391304 Z M12.5217391,12.5217391 L12.5217391,22.9565217 L12.5217391,24 L15.6521739,20.8695652 L22.9565217,20.8695652 L22.9565217,12.5217391 L12.5217391,12.5217391 Z" id="Fill-5" fill="#000000" mask="url(#mask-2)"/>
        </g>
    </g>
</svg>